<svg width="25" height="16" viewBox="0 0 25 16" fill="none" xmlns="http://www.w3.org/2000/svg">
    <title>Apple Pay</title>
    <g clip-path="url(#apple-pay-clip0)">
        <path
            d="M22.7584 0.333496L23.0124 0.333829C23.0821 0.334163 23.1518 0.335163 23.2217 0.336829C23.3487 0.340162 23.4981 0.347162 23.6417 0.373161C23.7747 0.39716 23.8874 0.434159 23.9964 0.48949C24.2168 0.601244 24.3958 0.780357 24.5074 1.0008C24.5627 1.10946 24.5994 1.22213 24.6234 1.35545C24.649 1.49778 24.6564 1.64744 24.6594 1.7751C24.6614 1.84443 24.6624 1.9141 24.6627 1.98443C24.6634 2.06876 24.6634 2.15375 24.6634 2.23842V13.7619C24.6634 13.8466 24.6634 13.9313 24.6627 14.0169C24.6624 14.0864 24.6613 14.1558 24.6594 14.2252C24.656 14.3529 24.649 14.5026 24.6234 14.6459C24.6026 14.7689 24.5635 14.8881 24.5074 14.9996C24.3951 15.2198 24.216 15.3989 23.9957 15.5112C23.8842 15.5675 23.7649 15.6067 23.6417 15.6275C23.5031 15.6497 23.3631 15.6618 23.2228 15.6635C23.1528 15.6652 23.0828 15.6662 23.0118 15.6662C22.9274 15.6669 22.8424 15.6669 22.7581 15.6669H2.23896C2.15529 15.6669 2.07163 15.6669 1.98697 15.6662C1.91697 15.6662 1.84697 15.6652 1.77864 15.6635C1.63796 15.6617 1.4976 15.6497 1.35866 15.6275C1.2351 15.6069 1.1154 15.5675 1.00368 15.5109C0.894149 15.4554 0.794221 15.3827 0.707687 15.2955C0.620885 15.2089 0.548427 15.109 0.49303 14.9996C0.436661 14.8878 0.397445 14.7683 0.376701 14.6449C0.354035 14.5061 0.34189 14.3658 0.340369 14.2252C0.338705 14.1557 0.337705 14.0862 0.337369 14.0166L0.337036 13.8133V2.18742L0.337369 1.98443C0.337703 1.91476 0.338703 1.8451 0.340369 1.7751C0.343703 1.64811 0.350702 1.49878 0.376701 1.35479C0.397293 1.23147 0.436518 1.112 0.49303 1.00047C0.604868 0.780271 0.783811 0.601328 1.00401 0.48949C1.11559 0.433188 1.23505 0.394081 1.35833 0.373494C1.49732 0.350842 1.63782 0.338697 1.77864 0.337163C1.84831 0.335496 1.91797 0.334496 1.9873 0.334163L2.24196 0.333496H22.7584Z"
            fill="white"
        />
        <path
            d="M22.7584 0.33332L23.0124 0.333653C23.082 0.333986 23.1517 0.334986 23.2217 0.336653C23.3487 0.339986 23.498 0.346986 23.6417 0.372985C23.7747 0.396984 23.8873 0.433982 23.9963 0.489313C24.2167 0.601067 24.3957 0.78018 24.5073 1.00063C24.5626 1.10929 24.5993 1.22195 24.6233 1.35528C24.649 1.4976 24.6563 1.64727 24.6593 1.77493C24.6613 1.84426 24.6623 1.91392 24.6626 1.98425C24.6633 2.06858 24.6633 2.15358 24.6633 2.23824V13.7618C24.6633 13.8464 24.6633 13.9311 24.6626 14.0168C24.6623 14.0862 24.6612 14.1557 24.6593 14.2251C24.656 14.3527 24.649 14.5024 24.6233 14.6457C24.6025 14.7687 24.5634 14.8879 24.5073 14.9994C24.395 15.2196 24.2159 15.3987 23.9956 15.511C23.8841 15.5673 23.7648 15.6065 23.6417 15.6274C23.5031 15.6496 23.363 15.6616 23.2227 15.6634C23.1527 15.665 23.0827 15.666 23.0117 15.666C22.9274 15.6667 22.8424 15.6667 22.758 15.6667H2.2389C2.15524 15.6667 2.07157 15.6667 1.98691 15.666C1.91691 15.666 1.84692 15.665 1.77859 15.6634C1.63791 15.6615 1.49754 15.6495 1.35861 15.6274C1.23504 15.6067 1.11534 15.5674 1.00362 15.5107C0.894094 15.4552 0.794166 15.3825 0.707632 15.2954C0.620831 15.2087 0.548372 15.1088 0.492975 14.9994C0.436607 14.8877 0.39739 14.7681 0.376646 14.6447C0.353981 14.506 0.341835 14.3657 0.340315 14.2251C0.338651 14.1555 0.337651 14.086 0.337315 14.0164L0.336981 13.8131V2.18724L0.337315 1.98425C0.337648 1.91459 0.338648 1.84492 0.340315 1.77493C0.343648 1.64793 0.350647 1.4986 0.376646 1.35461C0.397238 1.23129 0.436463 1.11182 0.492975 1.00029C0.604813 0.780095 0.783756 0.601151 1.00395 0.489313C1.11554 0.433012 1.23499 0.393905 1.35827 0.373318C1.49727 0.350665 1.63777 0.33852 1.77859 0.336986C1.84825 0.335319 1.91791 0.33432 1.98725 0.333986L2.2419 0.33332H22.7584ZM22.7584 0H2.2419L1.98558 0.00033332C1.91358 0.000666639 1.84158 0.0016666 1.76959 0.00366651C1.61212 0.00576108 1.45502 0.0195765 1.29961 0.0449981C1.14414 0.0717095 0.993505 0.12136 0.852626 0.192325C0.570099 0.336806 0.340324 0.566697 0.195987 0.849298C0.124829 0.990097 0.0751683 1.14076 0.0486602 1.29628C0.0229629 1.45167 0.00903505 1.60877 0.0069953 1.76626C0.00532871 1.83792 0.00432875 1.90992 0.00399543 1.98192L0.00366211 2.23824V13.7618L0.00399543 14.0184C0.00432875 14.0904 0.00532871 14.1624 0.00732862 14.2341C0.0116618 14.3907 0.0209947 14.5487 0.0489935 14.7037C0.0769924 14.8614 0.123324 15.0077 0.195987 15.1507C0.339717 15.4339 0.569804 15.6639 0.85296 15.8077C0.995954 15.8807 1.14228 15.9267 1.29961 15.955C1.4546 15.9827 1.61259 15.992 1.76959 15.9963C1.84158 15.9983 1.91325 15.9993 1.98558 15.9993C2.07091 16 2.15657 16 2.2419 16H22.7584C22.8437 16 22.9294 16 23.0147 15.9993C23.0867 15.999 23.1587 15.998 23.2307 15.9963C23.3873 15.992 23.5453 15.9827 23.7007 15.955C23.856 15.9283 24.0065 15.8786 24.1473 15.8077C24.4306 15.6641 24.6607 15.434 24.8043 15.1507C24.8773 15.0077 24.9233 14.8614 24.9513 14.7037C24.9793 14.5487 24.9883 14.3907 24.9926 14.2341C24.9946 14.1621 24.9956 14.0901 24.9959 14.0184C24.9966 13.9328 24.9966 13.8474 24.9966 13.7618V2.23824C24.9966 2.15258 24.9966 2.06725 24.9959 1.98158C24.9957 1.90969 24.9946 1.8378 24.9926 1.76593C24.9907 1.60845 24.9768 1.45134 24.9513 1.29595C24.9249 1.14045 24.8753 0.989779 24.8043 0.848965C24.6602 0.566042 24.4302 0.336042 24.1473 0.191992C24.0065 0.121031 23.856 0.0713793 23.7007 0.0446648C23.5452 0.0192713 23.3881 0.00545604 23.2307 0.0033332C23.1584 0.00133328 23.0864 0.000666639 23.0147 0H22.7584V0Z"
            fill="black"
        />
        <path
            d="M7.45535 4.80025C7.68601 4.5206 7.84167 4.13195 7.79933 3.74463C7.46601 3.7583 7.06303 3.96729 6.82571 4.24594C6.61072 4.49326 6.42472 4.88925 6.47606 5.2689C6.84671 5.29756 7.22469 5.07991 7.45535 4.80025ZM8.41298 7.25815C8.40564 6.42052 9.09628 6.01753 9.12828 5.99754C8.73863 5.43089 8.13432 5.35223 7.919 5.34356C7.40402 5.29256 6.91304 5.64688 6.65272 5.64688C6.39139 5.64688 5.98941 5.35156 5.56143 5.36056C5.00012 5.36856 4.48247 5.68688 4.19349 6.18919C3.61184 7.20349 4.04582 8.70142 4.6138 9.52172C4.89179 9.92337 5.22244 10.3747 5.65809 10.3584C6.07741 10.342 6.23473 10.087 6.74138 10.087C7.24702 10.0864 7.39002 10.3577 7.83167 10.35C8.28231 10.3404 8.5683 9.94004 8.84462 9.53639C9.16228 9.07141 9.29394 8.61976 9.3006 8.5971C9.2916 8.5911 8.42297 8.25978 8.41298 7.25815ZM13.7781 4.79992C13.6101 4.63793 13.3934 4.51193 13.1341 4.42527C12.8771 4.3396 12.5685 4.29627 12.2168 4.29627C11.9916 4.29527 11.7664 4.30696 11.5425 4.33127C11.3558 4.35211 11.1697 4.37823 10.9845 4.4096L10.9302 4.41893V10.3077H11.4678V7.82679C11.6488 7.85779 11.8562 7.87413 12.0848 7.87413C12.3891 7.87413 12.6741 7.83513 12.9321 7.7588C13.1803 7.68821 13.4115 7.56764 13.6114 7.40448C13.804 7.24352 13.9589 7.04223 14.0651 6.81484C14.1751 6.58151 14.2311 6.30719 14.2311 5.99854C14.2311 5.74321 14.1907 5.51356 14.1121 5.3159C14.036 5.12348 13.9225 4.94809 13.7781 4.79992ZM13.2841 7.04916C13.0081 7.28048 12.6175 7.39781 12.1218 7.39781C11.9855 7.39781 11.8565 7.39181 11.7382 7.38081C11.6472 7.37258 11.5569 7.35742 11.4682 7.33548V4.83125C11.5392 4.81825 11.6272 4.80592 11.7305 4.79492C11.8615 4.78092 12.0192 4.77392 12.1998 4.77392C12.4073 4.77185 12.614 4.79866 12.8141 4.85358C12.9846 4.90048 13.1448 4.97895 13.2864 5.08491C13.4154 5.1849 13.5168 5.3149 13.5871 5.47156C13.6581 5.63022 13.6938 5.81954 13.6938 6.03387C13.6934 6.47885 13.5554 6.8205 13.2841 7.04916ZM17.4446 9.75638C17.4386 9.58972 17.4363 9.42239 17.4363 9.25573V7.6188C17.4363 7.42481 17.4166 7.22682 17.3783 7.03016C17.3413 6.83448 17.2656 6.64817 17.1556 6.48218C17.0463 6.31819 16.8933 6.18286 16.702 6.07953C16.5106 5.97654 16.262 5.92454 15.9623 5.92454C15.7437 5.92454 15.53 5.95287 15.3284 6.0092C15.1166 6.07011 14.9163 6.16538 14.7354 6.29119L14.6917 6.32152L14.8734 6.7465L14.939 6.70217C15.0824 6.60594 15.2392 6.53136 15.4043 6.48085C15.5713 6.42863 15.7451 6.40189 15.92 6.40152C16.144 6.40152 16.323 6.44218 16.4506 6.52218C16.5803 6.60318 16.678 6.70351 16.741 6.82084C16.8066 6.94183 16.8496 7.07049 16.8686 7.20415C16.889 7.34315 16.8986 7.46748 16.8986 7.57414V7.62147C16.1017 7.6178 15.4793 7.75046 15.066 8.01679C14.6324 8.29611 14.4124 8.69376 14.4124 9.1984C14.4124 9.34373 14.4384 9.49006 14.4897 9.63472C14.5417 9.78105 14.6207 9.91204 14.724 10.024C14.828 10.1374 14.9624 10.2297 15.123 10.2987C15.283 10.3684 15.4713 10.4034 15.6817 10.4034C15.9795 10.4083 16.2725 10.3282 16.5263 10.1724C16.637 10.104 16.7353 10.0264 16.8193 9.94271C16.8551 9.90673 16.8892 9.86914 16.9216 9.83004H16.9423L16.9916 10.308H17.5099L17.4956 10.2314C17.4671 10.0745 17.4501 9.91573 17.4446 9.75638ZM16.8986 8.91775C16.8986 8.97508 16.885 9.05374 16.859 9.14807C16.8241 9.25013 16.7755 9.34692 16.7143 9.43573C16.5781 9.63511 16.3804 9.78438 16.1513 9.86071C16.0123 9.90642 15.8666 9.92861 15.7203 9.92637C15.6238 9.9264 15.528 9.91006 15.437 9.87804C15.3486 9.8473 15.2675 9.79874 15.1987 9.73538C15.1266 9.66719 15.0696 9.58464 15.0314 9.49306C14.989 9.3954 14.9677 9.2744 14.9677 9.13374C14.9677 8.90342 15.0297 8.71642 15.1514 8.57976C15.2824 8.43413 15.4469 8.32259 15.6307 8.25478C15.8389 8.17649 16.0567 8.12682 16.2783 8.10712C16.4845 8.08723 16.6915 8.07822 16.8986 8.08012V8.91775ZM21.0934 6.0202L20.0902 8.74776C20.0275 8.91242 19.9692 9.07841 19.9158 9.24007C19.8898 9.32073 19.8652 9.39706 19.8408 9.46973H19.8218C19.7968 9.39013 19.7712 9.31068 19.7452 9.2314C19.6932 9.07141 19.6372 8.91442 19.5798 8.76475L18.5069 6.0202H17.9332L19.4682 9.96604C19.5085 10.061 19.5145 10.1047 19.5145 10.1224C19.5145 10.1277 19.5125 10.16 19.4675 10.28C19.3837 10.4941 19.2743 10.6974 19.1419 10.8853C19.0189 11.0527 18.9062 11.1887 18.8059 11.289C18.6892 11.4056 18.5689 11.5013 18.4466 11.5736C18.3216 11.6473 18.2076 11.707 18.1066 11.752L18.0486 11.778L18.2356 12.2323L18.2949 12.2103C18.3436 12.1919 18.4349 12.1503 18.5736 12.0826C18.7135 12.0136 18.8685 11.9043 19.0339 11.7563C19.1804 11.6273 19.3105 11.4808 19.4212 11.32C19.5345 11.1573 19.6478 10.9663 19.7592 10.7543C19.8692 10.5427 19.9792 10.302 20.0865 10.0384C20.1938 9.77338 20.3091 9.47706 20.4281 9.15874L21.6678 6.0202H21.0934Z"
            fill="black"
        />
    </g>
    <defs>
        <clipPath id="apple-pay-clip0">
            <rect width="25" height="16" fill="white" />
        </clipPath>
    </defs>
</svg>
