<?xml version="1.0" encoding="UTF-8" standalone="no"?>
<svg
    xmlns:dc="http://purl.org/dc/elements/1.1/"
    xmlns:cc="http://creativecommons.org/ns#"
    xmlns:rdf="http://www.w3.org/1999/02/22-rdf-syntax-ns#"
    xmlns:svg="http://www.w3.org/2000/svg"
    xmlns="http://www.w3.org/2000/svg"
    xml:space="preserve"
    style="enable-background: new 0 0 49 14;"
    viewBox="0 0 49 14"
    height="14px"
    width="49px"
    y="0px"
    x="0px"
    id="Layer_1"
    version="1.1"
>
    <metadata id="metadata22">
        <rdf:RDF
            ><cc:Work rdf:about=""
                ><dc:format>image/svg+xml</dc:format
                ><dc:type rdf:resource="http://purl.org/dc/dcmitype/StillImage" /><dc:title></dc:title></cc:Work
        ></rdf:RDF>
    </metadata>
    <defs id="defs20" />
    <style id="style3" type="text/css">
        .st0 {
            fill-rule: evenodd;
            clip-rule: evenodd;
            fill: url(#SVGID_1_);
        }
        .st1 {
            fill-rule: evenodd;
            clip-rule: evenodd;
            fill: #4db45f;
        }
    </style>
    <title>МИР</title>
    <linearGradient y2="3" x2="48.5" y1="3" x1="34.1742" gradientUnits="userSpaceOnUse" id="SVGID_1_">
        <stop id="stop6" style="stop-color: #00b4e6;" offset="0" />
        <stop id="stop8" style="stop-color: #088ccb;" offset="1" />
    </linearGradient>
    <path
        id="path10"
        d="M43.5,0h-9.3c0.5,3.1,3.5,6,6.8,6h7.4c0.1-0.3,0.1-0.7,0.1-1C48.5,2.2,46.3,0,43.5,0z"
        class="st0"
    />
    <path
        style="clip-rule: evenodd; fill: #4db45f; fill-rule: evenodd;"
        id="path12"
        d="m 35,6.5 0,7.5 4.5,0 0,-4 4,0 c 2.2,0 4.1,-1.5 4.7,-3.5 z"
        class="st1"
    />
    <path
        id="path14"
        d="M19,0v14h4c0,0,1,0,1.5-1C27.2,7.6,28,6,28,6h0.5v8H33V0h-4c0,0-1,0.1-1.5,1C25.2,5.6,24,8,24,8h-0.5V0H19z"
        class="st1"
    />
    <path
        id="path16"
        d="M0,14V0h4.5c0,0,1.3,0,2,2c1.8,5.3,2,6,2,6s0.4-1.3,2-6c0.7-2,2-2,2-2H17v14h-4.5V6.5H12L9.5,14h-2L5,6.5H4.5  V14H0z"
        class="st1"
    />
</svg>
