<svg width="30" height="10" viewBox="0 0 30 10" fill="none" xmlns="http://www.w3.org/2000/svg">
    <title>VISA</title>
    <g clip-path="url(#visa-clip0)">
        <path d="M13 9.85556H10.5698L12.0899 0.175293H14.5199L13 9.85556Z" fill="#00579F" />
        <path
            d="M21.8097 0.412127C21.3304 0.216261 20.5701 0 19.63 0C17.2301 0 15.5401 1.31809 15.5298 3.20257C15.5098 4.59294 16.7397 5.36518 17.6596 5.82877C18.5999 6.30249 18.9195 6.61169 18.9195 7.03395C18.9099 7.68245 18.1597 7.98139 17.46 7.98139C16.4898 7.98139 15.9699 7.82727 15.1799 7.46647L14.8598 7.3118L14.5198 9.48481C15.0898 9.75226 16.1399 9.9896 17.2301 10C19.7801 10 21.4402 8.7023 21.4598 6.69409C21.4695 5.59212 20.8201 4.74774 19.4199 4.05776C18.57 3.61484 18.0494 3.31618 18.0494 2.86299C18.0594 2.451 18.4897 2.02902 19.4492 2.02902C20.2392 2.00835 20.8197 2.20394 21.2594 2.39967L21.4792 2.50246L21.8097 0.412127Z"
            fill="#00579F"
        />
        <path
            d="M25.0396 6.42619C25.2397 5.87007 26.0098 3.71773 26.0098 3.71773C25.9997 3.73839 26.2096 3.15134 26.3296 2.79095L26.4994 3.62506C26.4994 3.62506 26.9596 5.9422 27.0596 6.42619C26.6798 6.42619 25.5196 6.42619 25.0396 6.42619ZM28.0394 0.175293H26.1596C25.5799 0.175293 25.1395 0.350218 24.8894 0.978469L21.2797 9.85543H23.8296C23.8296 9.85543 24.2494 8.66065 24.3397 8.40333C24.6194 8.40333 27.1 8.40333 27.4598 8.40333C27.5296 8.74319 27.7498 9.85543 27.7498 9.85543H30L28.0394 0.175293Z"
            fill="#00579F"
        />
        <path
            d="M8.54002 0.175293L6.16004 6.77631L5.89997 5.43754C5.45996 3.89279 4.08 2.21444 2.54004 1.37992L4.72001 9.84529H7.28989L11.1098 0.175293H8.54002Z"
            fill="#00579F"
        />
        <path
            d="M3.94997 0.175293H0.0400006L0 0.370886C3.05002 1.1742 5.06999 3.11055 5.89991 5.43796L5.04993 0.989008C4.90999 0.370749 4.47995 0.195687 3.94997 0.175293Z"
            fill="#FAA61A"
        />
    </g>
    <defs>
        <clipPath id="visa-clip0">
            <rect width="30" height="10" fill="white" />
        </clipPath>
    </defs>
</svg>
